<?xml version="1.0" encoding="UTF-8" standalone="no"?>
<!-- Created with Inkscape (http://www.inkscape.org/) -->

<svg
   xmlns:dc="http://purl.org/dc/elements/1.1/"
   xmlns:cc="http://creativecommons.org/ns#"
   xmlns:rdf="http://www.w3.org/1999/02/22-rdf-syntax-ns#"
   xmlns:svg="http://www.w3.org/2000/svg"
   xmlns="http://www.w3.org/2000/svg"
   xmlns:sodipodi="http://sodipodi.sourceforge.net/DTD/sodipodi-0.dtd"
   xmlns:inkscape="http://www.inkscape.org/namespaces/inkscape"
   width="282.22223mm"
   height="148.6759mm"
   viewBox="0 0 1000 526.80438"
   id="svg4811"
   version="1.1"
   inkscape:version="0.91 r13725"
   sodipodi:docname="Link.svg">
  <defs
     id="defs4813">
    <clipPath
       clipPathUnits="userSpaceOnUse"
       id="clipPath64">
      <path
         d="m 106.02,431.57 70.8,0 0,-37.8 -70.8,0 0,37.8 z"
         id="path66"
         inkscape:connector-curvature="0" />
    </clipPath>
  </defs>
  <sodipodi:namedview
     id="base"
     pagecolor="#ffffff"
     bordercolor="#666666"
     borderopacity="1.0"
     inkscape:pageopacity="0.0"
     inkscape:pageshadow="2"
     inkscape:zoom="0.35"
     inkscape:cx="911.42862"
     inkscape:cy="194.46894"
     inkscape:document-units="px"
     inkscape:current-layer="layer1"
     showgrid="false"
     fit-margin-top="0"
     fit-margin-left="0"
     fit-margin-right="0"
     fit-margin-bottom="0"
     inkscape:window-width="1366"
     inkscape:window-height="705"
     inkscape:window-x="-8"
     inkscape:window-y="-8"
     inkscape:window-maximized="1" />
  <metadata
     id="metadata4816">
    <rdf:RDF>
      <cc:Work
         rdf:about="">
        <dc:format>image/svg+xml</dc:format>
        <dc:type
           rdf:resource="http://purl.org/dc/dcmitype/StillImage" />
        <dc:title></dc:title>
      </cc:Work>
    </rdf:RDF>
  </metadata>
  <g
     inkscape:label="Layer 1"
     inkscape:groupmode="layer"
     id="layer1"
     transform="translate(-410.5499,-200.02676)">
    <g
       transform="matrix(14.29037,0,0,-14.29037,-1108.6659,6360.8257)"
       id="g60">
      <g
         id="g62"
         clip-path="url(#clipPath64)">
        <path
           d="m 113.246,427.182 7.861,0 -0.843,-4.834 c 4.796,2.695 10.588,4.999 16.984,6.596 19.193,4.789 36.564,1.392 38.801,-7.588 1.126,-4.52 -1.796,-9.592 -7.423,-14.126 l 4.19,-8.651 -6.511,0 c -0.99,0 -1.19,0.243 -1.643,1.13 l -1.707,3.665 c -4.914,-2.848 -10.93,-5.285 -17.606,-6.951 -19.192,-4.79 -36.563,-1.392 -38.8,7.588 -0.926,3.718 0.887,7.81 4.691,11.668 l 2.006,11.503"
           style="fill:#ed1c24;fill-opacity:1;fill-rule:nonzero;stroke:none"
           id="path68"
           inkscape:connector-curvature="0" />
      </g>
    </g>
    <path
       d="m 520.16483,273.08481 84.34176,0 -40.61323,227.14544 110.45027,0 -10.16045,69.90849 -194.79204,0 50.77369,-297.05393"
       style="fill:#ffffff;fill-opacity:1;fill-rule:nonzero;stroke:none"
       id="path70"
       inkscape:connector-curvature="0" />
    <path
       d="m 744.33787,383.64941 69.83704,0 -33.5395,186.48933 -69.83704,0 33.5395,-186.48933"
       style="fill:#ffffff;fill-opacity:1;fill-rule:nonzero;stroke:none"
       id="path72"
       inkscape:connector-curvature="0" />
    <path
       d="m 757.22778,319.75716 69.83704,0 -7.25951,40.85617 -69.83704,0 7.25951,-40.85617"
       style="fill:#ffffff;fill-opacity:1;fill-rule:nonzero;stroke:none"
       id="path74"
       inkscape:connector-curvature="0" />
    <path
       d="m 857.68909,383.64941 69.83704,0 -6.81651,37.88377 c 16.49109,-34.32547 67.10758,-46.78667 98.16058,-38.69833 43.5427,11.34656 48.7873,35.56874 39.4414,83.79874 l -18.849,103.50515 -72.73799,0 17.40567,-87.32845 c 7.45958,-33.3966 -3.17246,-47.01532 -31.91039,-40.87046 -18.93474,5.11595 -34.62557,31.33878 -46.31509,61.94875 l -11.91817,66.25016 -69.83704,0 33.5395,-186.48933"
       style="fill:#ffffff;fill-opacity:1;fill-rule:nonzero;stroke:none"
       id="path76"
       inkscape:connector-curvature="0" />
    <path
       d="m 1130.2922,321.34339 69.8227,0 -44.886,248.79535 -69.8371,0 44.9004,-248.79535"
       style="fill:#ffffff;fill-opacity:1;fill-rule:nonzero;stroke:none"
       id="path78"
       inkscape:connector-curvature="0" />
    <path
       d="m 1327.828,362.94266 -126.4698,88.61459 c -19.5206,17.93441 -19.2777,30.15268 -5.4303,57.2758 l 59.3336,127.34149 c 6.4592,12.67556 9.3316,16.14812 23.4791,16.14812 l 60.5197,0 -77.6825,-160.36654 c -6.0305,-10.86068 -8.0312,-19.27771 0,-30.15268 l 66.2502,-98.86078"
       style="fill:#ffffff;fill-opacity:1;fill-rule:nonzero;stroke:none"
       id="path80"
       inkscape:connector-curvature="0" />
  </g>
</svg>
